# xmcd
#
# Track frame offsets:
#	150
#	18800
#	39095
#	62588
#	84938
#	106275
#	129268
#	150505
#	171300
#	190950
#	211403
#	234175
#	252475
#	274303
#
# Disc length: 3993 seconds
#
# Revision: 1
# Processed by: cddbd v1.5.1PL0 Copyright (c) Steve Scherf et al.
# Submitted via: CDex 1.50Beta5
#
DISCID=ac0f970e
DTITLE=高橋真梨子 - Voice〜Special Best〜
DYEAR=1994
DGENRE=
TTITLE0=あなたの空を翔びたい
TTITLE1=蜃気楼
TTITLE2=グランパ
TTITLE3=想い出はひかりの中
TTITLE4=水の吐息
TTITLE5=裏窓
TTITLE6=Sincerely
TTITLE7=for you…
TTITLE8=はがゆい唇
TTITLE9=My Heart New York City
TTITLE10=Brown Joe
TTITLE11=それでもあなたがいるだけで
TTITLE12=ランナー
TTITLE13=素足のボレロ
EXTD=
EXTT0=
EXTT1=
EXTT2=
EXTT3=
EXTT4=
EXTT5=
EXTT6=
EXTT7=
EXTT8=
EXTT9=
EXTT10=
EXTT11=
EXTT12=
EXTT13=
PLAYORDER=
